<?xml version="1.0" ?><!DOCTYPE svg  PUBLIC '-//W3C//DTD SVG 1.1//EN'  'http://www.w3.org/Graphics/SVG/1.1/DTD/svg11.dtd'><svg enable-background="new 0 0 512 512" height="512px" id="Layer_1" version="1.1" viewBox="0 0 512 512" width="512px" xml:space="preserve" xmlns="http://www.w3.org/2000/svg" xmlns:xlink="http://www.w3.org/1999/xlink"><g><path d="M459.317,160.812l-8.159-46.296c-0.001-0.006-0.002-0.013-0.003-0.02l-12.414-70.442c-0.582-3.305-2.956-6.012-6.156-7.021   c-3.203-1.012-6.698-0.153-9.071,2.219L163.247,299.52l-23.296-23.296c-1.688-1.688-3.977-2.636-6.364-2.636   s-4.676,0.948-6.364,2.636l-37.515,37.516c-3.515,3.515-3.515,9.214,0,12.729l39.951,39.951l-76.839,76.839   c-3.515,3.515-3.515,9.214,0,12.729l35.355,35.355c1.688,1.688,3.977,2.636,6.364,2.636c2.387,0,4.676-0.948,6.364-2.636   l23.919-23.919c0.001-0.002,0.003-0.003,0.005-0.005s0.003-0.004,0.004-0.005l52.911-52.911l39.952,39.952   c1.688,1.688,3.977,2.636,6.364,2.636c2.387,0,4.676-0.948,6.364-2.636l37.515-37.516c3.515-3.515,3.515-9.214,0-12.729   l-23.296-23.296l212.177-212.176C458.895,166.662,459.827,163.703,459.317,160.812z M424.016,64.207l8.629,48.963L204.772,341.045   l-28.796-28.797L424.016,64.207z M94.54,472.25l-22.627-22.628l11.196-11.196l22.627,22.628L94.54,472.25z M165.015,401.774   l-46.551,46.552l-22.627-22.628l46.551-46.552l11.313,11.314L165.015,401.774z M224.059,435.362l-47.189-47.19l-28.117-28.117   c-0.002-0.002-0.005-0.004-0.007-0.006L108.8,320.104l24.787-24.788l23.289,23.288c0.002,0.003,0.005,0.006,0.007,0.009   l34.333,34.333l57.628,57.629L224.059,435.362z M231.914,368.187L217.5,353.772l218.958-218.959l4.319,24.509L231.914,368.187z"/></g></svg>