<?xml version="1.0" encoding="utf-8"?>
<!-- Generator: Adobe Illustrator 21.0.0, SVG Export Plug-In . SVG Version: 6.00 Build 0)  -->
<svg version="1.1" id="Layer_1" xmlns="http://www.w3.org/2000/svg" xmlns:xlink="http://www.w3.org/1999/xlink" x="0px" y="0px"
	 viewBox="0 0 300 300" style="enable-background:new 0 0 300 300;" xml:space="preserve">
<style type="text/css">
	.st0{fill:none;stroke:#000000;stroke-width:30;stroke-linecap:round;}
</style>
<g transform="translate(0,0)">
	<g>
		<path d="M210,300c-17.2,0-33.6-1.7-46.1-4.8c-4.9-1.2-9.2-2.7-12.9-4.4c-2.6,1.5-5.8,2.9-9.4,4.1c-10,3.3-23,5.2-36.6,5.2
			c-21,0-40.9-1.7-56-4.7c-9.3-1.9-34-6.8-34-25.3c0-16.6,8.6-32.6,23.6-43.8c10.8-8.1,24.1-13.3,38.5-15.3
			c3.4-11.3,10.8-21.7,21.5-29.7c13.9-10.4,32.2-16.2,51.4-16.2c18.3,0,35.8,3.7,49.1,10.4c10.8,5.4,18.4,12.4,22.5,20.5
			c35.9,5.6,63.4,36.7,63.4,74.1c0,11.9-9.7,20.4-28.9,25.2C243.6,298.3,227.2,300,210,300z M165.4,264.3c6.9,2.5,22.6,5.7,44.6,5.7
			s37.7-3.1,44.6-5.7c-2.8-22.1-21.8-39.3-44.6-39.3S168.2,242.2,165.4,264.3z M46,263.7c9.1,2.8,29.7,6.3,59,6.3
			c14.1,0,24.5-2.4,29.5-4.5C131.1,251.3,112.1,240,90,240C68.8,240,50.5,250.4,46,263.7z M109.6,212c11.8,2.5,22.8,7.3,31.8,14.1
			c1.7,1.3,3.4,2.7,5,4.1c8.3-13.3,20.7-23.8,35.5-29.8c-8.8-3.5-20.1-5.5-31.9-5.5C132.5,195,117,202.1,109.6,212z"/>
	</g>
</g>
<g>
	<g>
		<path class="st0" d="M0,0"/>
	</g>
</g>
</svg>
