<?xml version="1.0" encoding="utf-8"?>
<!-- Generator: Adobe Illustrator 21.0.0, SVG Export Plug-In . SVG Version: 6.00 Build 0)  -->
<svg version="1.1" id="Layer_1" xmlns="http://www.w3.org/2000/svg" xmlns:xlink="http://www.w3.org/1999/xlink" x="0px" y="0px"
	 viewBox="0 0 300 300" style="enable-background:new 0 0 300 300;" xml:space="preserve">
<style type="text/css">
	.st0{fill:none;stroke:#000000;stroke-width:30;stroke-linecap:round;}
</style>
<g transform="translate(0,0)">
	<g>
		<path d="M150,300c-17.2,0-33.6-1.7-46.1-4.8C84.7,290.4,75,281.9,75,270c0-41.9,6.6-81.6,18.6-111.6c5.7-14.2,12.4-25.8,20-34.5
			c-6.5-4.3-12.5-9.8-17.8-16.5C85.2,94,78.3,77.3,75.9,59.3c-13-1.4-25.2-4.7-35.1-9.6C24.2,41.3,15,29,15,15c0-8.3,6.7-15,15-15
			s15,6.7,15,15c0,0.5,1.6,4,9.3,7.8c8.4,4.2,20,6.7,32.3,7.1l56.6-28.3c0.3-0.1,0.6-0.3,0.8-0.4c1.9-0.9,4-1.3,6-1.3c0,0,0,0,0,0
			c2,0,4,0.4,5.9,1.2c0.3,0.1,0.7,0.3,1,0.5l56.6,28.3c12.3-0.4,23.9-3,32.3-7.1c7.7-3.8,9.3-7.3,9.3-7.8c0-8.3,6.7-15,15-15
			s15,6.7,15,15c0,14-9.2,26.3-25.9,34.6c-9.9,4.9-22,8.2-35.1,9.6c-2.4,18.1-9.2,34.8-19.9,48.1c-5.3,6.6-11.3,12.1-17.8,16.5
			c7.6,8.7,14.3,20.3,20,34.5c12,30.1,18.6,69.7,18.6,111.6c0,11.9-9.7,20.4-28.9,25.2C183.6,298.3,167.2,300,150,300z M105,264.2
			c6.7,2.6,22.6,5.8,45,5.8c22.3,0,38.2-3.2,45-5.8c-0.3-16-1.5-31.6-3.8-46.1c-1.4,0.6-3,1.2-4.6,1.7c-10,3.3-23,5.2-36.6,5.2
			s-26.6-1.8-36.6-5.2c-1.6-0.5-3.2-1.1-4.6-1.7C106.6,232.6,105.3,248.2,105,264.2z M119.1,189.9c4.1,2.1,15.3,5.1,30.9,5.1
			c15.6,0,26.8-3,30.9-5.1c0.7-1.8,1.7-3.5,2.9-4.9c-1.6-5.4-3.4-10.6-5.4-15.5c-8.4-21-19.6-34.5-28.5-34.5
			c-8.9,0-20.1,13.5-28.5,34.5c-1.9,4.9-3.7,10-5.4,15.5C117.4,186.4,118.4,188,119.1,189.9z M120,195L120,195L120,195z M106.4,60
			c5,25.8,22.6,45,43.6,45c20.9,0,38.6-19.2,43.6-45H106.4z"/>
	</g>
</g>
<g>
	<g>
		<path class="st0" d="M0,0"/>
	</g>
</g>
</svg>
