<?xml version="1.0" encoding="utf-8"?>
<!-- Generator: Adobe Illustrator 21.0.0, SVG Export Plug-In . SVG Version: 6.00 Build 0)  -->
<svg version="1.1" id="Layer_1" xmlns="http://www.w3.org/2000/svg" xmlns:xlink="http://www.w3.org/1999/xlink" x="0px" y="0px"
	 viewBox="0 0 300 300" style="enable-background:new 0 0 300 300;" xml:space="preserve">
<style type="text/css">
	.st0{fill:none;stroke:#000000;stroke-width:30;stroke-linecap:round;}
</style>
<g transform="translate(0,0)">
	<g>
		<path d="M300,315H0c-8.3,0-15-6.7-15-15V50.7c0-1.7,0.3-17.2,9.6-33C3.4,2.8,21.9-15,60-15h180c38.1,0,56.6,17.8,65.4,32.7
			c9.3,15.7,9.6,31.3,9.6,33V300C315,308.3,308.3,315,300,315z M15,285h270V50.8c0-0.6-0.4-9.9-5.9-18.7C271.9,20.8,258.8,15,240,15
			H60c-19.2,0-32.5,6-39.6,18C15.2,41.7,15,50.6,15,50.7V285z M255,195h-30v-30h30V195z"/>
	</g>
</g>
<g>
	<g>
		<path class="st0" d="M0,0"/>
	</g>
</g>
</svg>
