<?xml version="1.0" encoding="utf-8"?>
<!-- Generator: Adobe Illustrator 21.0.0, SVG Export Plug-In . SVG Version: 6.00 Build 0)  -->
<svg version="1.1" id="Layer_1" xmlns="http://www.w3.org/2000/svg" xmlns:xlink="http://www.w3.org/1999/xlink" x="0px" y="0px"
	 viewBox="0 0 300 300" style="enable-background:new 0 0 300 300;" xml:space="preserve">
<style type="text/css">
	.st0{fill:none;stroke:#000000;stroke-width:30;stroke-linecap:round;}
</style>
<g transform="translate(0,0)">
	<g>
		<path d="M150,300c-32.7,0-63.5-1.6-86.7-4.5c-11.8-1.5-21.3-3.3-28.1-5.3c-5-1.5-20.2-6-20.2-20.2c0-47.2,13.5-91.8,38-125.5
			C78.6,109.4,113,90,150,90c37,0,71.4,19.4,97,54.5c24.5,33.7,38,78.3,38,125.5c0,14.3-15.2,18.7-20.2,20.2
			c-6.8,2-16.3,3.8-28.1,5.3C213.5,298.4,182.7,300,150,300z M255,270L255,270L255,270z M45.1,262c13.9,3.7,50.8,8,104.9,8
			s91-4.3,104.9-8c-1.4-37.9-12.7-73.1-32.1-99.8C203,135,177.1,120,150,120c-27.1,0-53,15-72.7,42.2
			C57.8,188.9,46.5,224.1,45.1,262z M45,270L45,270L45,270z M180,210c-5.5,0-10.8-3-13.4-8.3c-3.7-7.4-0.7-16.4,6.7-20.1l30-15
			c7.4-3.7,16.4-0.7,20.1,6.7c3.7,7.4,0.7,16.4-6.7,20.1l-30,15C184.6,209.5,182.3,210,180,210z M120,210c-2.3,0-4.5-0.5-6.7-1.6
			l-30-15c-7.4-3.7-10.4-12.7-6.7-20.1c3.7-7.4,12.7-10.4,20.1-6.7l30,15c7.4,3.7,10.4,12.7,6.7,20.1C130.8,207,125.5,210,120,210z"
			/>
	</g>
</g>
<g>
	<g>
		<path class="st0" d="M0,0"/>
	</g>
</g>
</svg>
