<?xml version="1.0" encoding="utf-8"?>
<!-- Generator: Adobe Illustrator 21.0.0, SVG Export Plug-In . SVG Version: 6.00 Build 0)  -->
<svg version="1.1" id="Layer_1" xmlns="http://www.w3.org/2000/svg" xmlns:xlink="http://www.w3.org/1999/xlink" x="0px" y="0px"
	 viewBox="0 0 300 300" style="enable-background:new 0 0 300 300;" xml:space="preserve">
<style type="text/css">
	.st0{fill:none;stroke:#000000;stroke-width:30;stroke-linecap:round;}
</style>
<g transform="translate(0,0)">
	<g>
		<path d="M150,300c-36.6,0-71.1-1.6-97.1-4.5c-13.1-1.5-23.6-3.2-31.1-5.2C16.4,288.9,0,284.6,0,270c0-51.3,15.1-99.7,42.5-136.3
			c3.9-5.2,8-10.1,12.3-14.6C49.1,117,45,111.5,45,105V39.2l64.7,21.6c0.5,0.2,0.9,0.3,1.4,0.5L150,3l38.9,58.3
			c0.4-0.2,0.9-0.4,1.4-0.5L255,39.2V105c0,6.5-4.1,12-9.8,14.1c4.3,4.6,8.3,9.4,12.3,14.6c27.4,36.6,42.5,85,42.5,136.3
			c0,14.6-16.4,18.9-21.8,20.3c-7.5,2-18,3.7-31.1,5.2C221.1,298.4,186.6,300,150,300z M270,270L270,270L270,270z M30.2,261.6
			c15.3,3.9,57.5,8.4,119.8,8.4s104.5-4.5,119.8-8.4c-1.5-41.7-14.3-80.4-36.4-109.9C210.9,121.6,181.2,105,150,105
			s-60.9,16.6-83.5,46.7C44.5,181.2,31.7,219.9,30.2,261.6z M30,270L30,270L30,270z M203.9,87.8c7.3,3.6,14.3,8,21.1,13v-20
			L203.9,87.8z M75,80.8v20c6.8-5.1,13.8-9.4,21.1-13L75,80.8z M150,75c4.2,0,8.3,0.2,12.4,0.6L150,57l-12.4,18.6
			C141.7,75.2,145.8,75,150,75z M210,240c-2.3,0-4.5-0.5-6.7-1.6l-52.2-26.1L150,213l-1.1-0.7l-52.2,26.1
			c-7.4,3.7-16.4,0.7-20.1-6.7c-3.7-7.4-0.7-16.4,6.7-20.1l36.9-18.4l-23.5-15.7c-6.9-4.6-8.8-13.9-4.2-20.8
			c4.6-6.9,13.9-8.8,20.8-4.2L135,167v-17c0-8.3,6.7-15,15-15s15,6.7,15,15v17l21.7-14.5c6.9-4.6,16.2-2.7,20.8,4.2
			c4.6,6.9,2.7,16.2-4.2,20.8l-23.5,15.7l36.9,18.4c7.4,3.7,10.4,12.7,6.7,20.1C220.8,237,215.5,240,210,240z"/>
	</g>
</g>
<g>
	<g>
		<path class="st0" d="M0,0"/>
	</g>
</g>
</svg>
