<?xml version="1.0" encoding="utf-8"?>
<!-- Generator: Adobe Illustrator 21.0.0, SVG Export Plug-In . SVG Version: 6.00 Build 0)  -->
<svg version="1.1" id="Layer_1" xmlns="http://www.w3.org/2000/svg" xmlns:xlink="http://www.w3.org/1999/xlink" x="0px" y="0px"
	 viewBox="0 0 300 300" style="enable-background:new 0 0 300 300;" xml:space="preserve">
<style type="text/css">
	.st0{fill:none;stroke:#000000;stroke-width:30;stroke-linecap:round;}
</style>
<g transform="translate(0,0)">
	<g>
		<path d="M157,256c-32.7,0-63.5-1.6-86.7-4.5c-11.8-1.5-21.3-3.3-28.1-5.3c-5-1.5-20.2-6-20.2-20.2c0-28.9,14.6-55.7,41.1-75.6
			C88.4,131.4,121.7,121,157,121c38.1,0,71.5,20.4,89.9,50.8c0-1.9,0.1-3.8,0.1-5.8c0-24.2-3.8-40.8-6.4-46.4
			c-5.1-2.4-8.6-7.6-8.6-13.6c0-8.3,6.7-15,15-15c11.9,0,20.4,9.7,25.2,28.9c3.1,12.5,4.8,28.8,4.8,46.1c0,17.2-1.7,33.6-4.8,46.1
			c-3.3,13-8.2,21.7-14.8,25.9c-2.5,2.9-6.3,5.6-12,7.8c-5.5,2.2-13,4.1-22.3,5.6C205.3,254.4,181.8,256,157,256z M52.6,218.1
			c14.2,3.7,51,7.9,104.4,7.9c38.2,0,64.2-4,74.7-7.1c-3.6-38-35.7-67.9-74.7-67.9c-28.8,0-55.8,8.3-75.9,23.4
			C65,186.5,55,201.8,52.6,218.1z M52,226L52,226L52,226z M247,121C247,121,247,121,247,121C247,121,247,121,247,121z M112,211H82
			c-8.3,0-15-6.7-15-15s6.7-15,15-15h30c8.3,0,15,6.7,15,15S120.3,211,112,211z"/>
	</g>
</g>
<g>
	<g>
		<path class="st0" d="M-23-14"/>
	</g>
</g>
</svg>
