<?xml version="1.0" encoding="utf-8"?>
<!-- Generator: Adobe Illustrator 21.0.0, SVG Export Plug-In . SVG Version: 6.00 Build 0)  -->
<svg version="1.1" id="Layer_1" xmlns="http://www.w3.org/2000/svg" xmlns:xlink="http://www.w3.org/1999/xlink" x="0px" y="0px"
	 viewBox="0 0 300 300" style="enable-background:new 0 0 300 300;" xml:space="preserve">
<style type="text/css">
	.st0{fill:none;stroke:#000000;stroke-width:30;stroke-linecap:round;}
</style>
<g transform="translate(0,0)">
	<g>
		<path d="M150,300c-36.6,0-71.1-1.6-97.1-4.5c-13.1-1.5-23.6-3.2-31.1-5.2C16.4,288.9,0,284.6,0,270c0-40.5,1.6-78.7,4.5-107.6
			c1.4-14.4,3.2-25.9,5.1-34.1C11.1,122,15.1,105,30,105c18.3,0,35.8,3.7,49.1,10.4c0.2,0.1,0.4,0.2,0.5,0.3
			c1.5-5.3,3.5-10.3,5.7-14.8C93.7,84.2,106,75,120,75c21.7,0,31,28.3,34.7,42.4C168.7,90,188.3,75,210,75
			c10.7,0,30.7,5.2,45.6,39.8c7.7,18,12.6,40.7,14,65.2c0.1,0,0.3,0,0.4,0c18.5,0,23.5,24.7,25.3,34c3,15.1,4.7,35,4.7,56
			c0,14.6-16.4,18.9-21.8,20.3c-7.5,2-18,3.7-31.1,5.2C221.1,298.4,186.6,300,150,300z M123,269.7c8.5,0.2,17.5,0.3,27,0.3
			c62.5,0,104.6-4.5,119.9-8.4c-0.6-25.7-3.8-43.6-6.5-51.4c-31,1.8-53.5,16.6-53.5,29.8c0,8.3-6.7,15-15,15s-15-6.7-15-15
			c0-26.5,24.6-48.5,59.7-56.6c-2.4-48.9-19.9-78.4-29.7-78.4c-21.2,0-45,44.9-45,105c0,8.3-6.7,15-15,15s-15-6.7-15-15
			c0-26.9-2.3-52.9-6.6-73.4c-3.7-17.7-7.8-26.8-10.3-30.6c-1.5,1.2-3.6,3.6-6,8.2c-4.6,9.2-7.2,22.2-7.2,35.7c0,8.3-6.7,15-15,15
			s-15-6.7-15-15c0-0.5-1.6-4-9.3-7.8c-7.2-3.6-16.8-6-27.1-6.8c-3.8,16.2-8.3,60.3-8.6,126.2c12.3,3.1,42.2,6.7,86.3,8
			c-6.5-1.7-11.3-7.5-11.3-14.5c0-22.1-11.3-41.1-25.5-44.5c-2,5-4.5,15.4-4.5,29.5c0,8.3-6.7,15-15,15s-15-6.7-15-15
			c0-13.6,1.8-26.6,5.2-36.6C57,183,68.6,180,75,180c16.6,0,32.6,8.6,43.8,23.6c10.4,13.9,16.2,32.2,16.2,51.4
			C135,262.3,129.8,268.3,123,269.7z"/>
	</g>
</g>
<g>
	<path class="st0" d="M0,0"/>
</g>
</svg>
