<?xml version="1.0" encoding="utf-8"?>
<!-- Generator: Adobe Illustrator 21.0.0, SVG Export Plug-In . SVG Version: 6.00 Build 0)  -->
<svg version="1.1" id="Layer_1" xmlns="http://www.w3.org/2000/svg" xmlns:xlink="http://www.w3.org/1999/xlink" x="0px" y="0px"
	 viewBox="0 0 300 300" style="enable-background:new 0 0 300 300;" xml:space="preserve">
<style type="text/css">
	.st0{fill:none;stroke:#000000;stroke-width:30;stroke-linecap:round;}
</style>
<g transform="translate(0,0)">
	<g>
		<path d="M150,300c-21,0-40.9-1.7-56-4.7c-9.3-1.9-34-6.8-34-25.3c0-34.8,8.6-67.8,24.2-92.8c7.4-11.8,16-21.3,25.4-28.3
			c-5.3-4.7-10.2-10.4-14.6-16.9C82.6,113.2,75.5,88.7,75,62.7l-17.2-2.9c-0.8-0.1-1.5-0.3-2.3-0.5c-2.1-0.6-4-1.7-5.5-3.1
			c-1.6-1.4-2.9-3.2-3.8-5.2c-0.7-1.6-1.1-3.4-1.2-5.2c-0.1-1.8,0.1-3.6,0.6-5.3c0.6-2.1,1.7-4,3.1-5.5c1.4-1.6,3.2-2.9,5.2-3.8
			c0.7-0.3,1.4-0.6,2.2-0.8l112.1-32l80.8,64.7c0.5,0.4,1,0.8,1.4,1.2c1.6,1.5,2.7,3.4,3.5,5.3c0.7,1.9,1.1,4.1,1,6.2
			c-0.1,1.8-0.5,3.6-1.3,5.3c-0.7,1.6-1.8,3.1-3,4.4c-1.5,1.6-3.4,2.7-5.3,3.5c-1.9,0.7-4.1,1.1-6.2,1c-0.6,0-1.3-0.1-1.9-0.2
			l-14.7-2.5c-3.1,16.6-9.1,32-17.6,44.7c-4.4,6.6-9.3,12.2-14.6,16.9c9.4,7,18,16.5,25.4,28.3c15.6,25,24.2,58,24.2,92.8
			c0,18.5-24.7,23.5-34,25.3C190.9,298.3,171,300,150,300z M90.1,263.4c8.6,2.9,29.6,6.6,59.9,6.6c11.4,0,21.4-0.5,30-1.3
			c-0.7-39.6-32.2-71.8-71.6-73.6C98,212.8,91.1,237,90.1,263.4z M90,270L90,270L90,270z M133.9,169c41.9,12,73.2,49.4,75.9,94.4
			c0,0,0.1,0,0.1,0c-2-54-28.6-98.4-59.9-98.4C144.4,165,139,166.4,133.9,169z M105.3,67.7c2.4,37.2,21.9,67.3,44.7,67.3
			c19.7,0,37-22.5,42.9-52.6L105.3,67.7z M128.1,41.1l57.6,9.6l-24-19.2L128.1,41.1z M165,120c-2.3,0-4.5-0.5-6.7-1.6l-30-15
			c-7.4-3.7-10.4-12.7-6.7-20.1s12.7-10.4,20.1-6.7l30,15c7.4,3.7,10.4,12.7,6.7,20.1C175.8,117,170.5,120,165,120z"/>
	</g>
</g>
<g>
	<g>
		<path class="st0" d="M0,0"/>
	</g>
</g>
</svg>
