<?xml version="1.0" encoding="utf-8"?>
<!-- Generator: Adobe Illustrator 21.0.0, SVG Export Plug-In . SVG Version: 6.00 Build 0)  -->
<svg version="1.1" id="Layer_1" xmlns="http://www.w3.org/2000/svg" xmlns:xlink="http://www.w3.org/1999/xlink" x="0px" y="0px"
	 viewBox="0 0 200 60" style="enable-background:new 0 0 200 60;" xml:space="preserve">
<style type="text/css">
	.st0{fill:none;stroke:#000000;stroke-width:4;stroke-miterlimit:10;}
	.st1{fill:#FFFFFF;}
	.st2{font-family:'Consolas-Bold';}
	.st3{font-size:12px;}
</style>
<line class="st0" x1="0" y1="37.5" x2="200" y2="37.5"/>
<circle cx="100" cy="37.5" r="22.5"/>
<path class="st1" d="M100,27.5c-5,0-9,4-9,9c0,3,1.5,5.8,4,7.5v3.5h2v-3h2v3h2v-3h2v3h2V44c2.5-1.7,4-4.5,4-7.5
	C109,31.5,105,27.5,100,27.5 M96,36.5c1.1,0,2,0.9,2,2s-0.9,2-2,2s-2-0.9-2-2S94.9,36.5,96,36.5 M104,36.5c1.1,0,2,0.9,2,2
	s-0.9,2-2,2s-2-0.9-2-2S102.9,36.5,104,36.5 M100,39.5l1.5,3h-3L100,39.5z"/>
<text transform="matrix(1 0 0 1 70.3109 10.4998)" class="st2 st3">PAPERLIKE</text>
</svg>
