<?xml version="1.0" encoding="utf-8"?>
<!-- Generator: Adobe Illustrator 21.0.0, SVG Export Plug-In . SVG Version: 6.00 Build 0)  -->
<svg version="1.1" id="Layer_1" xmlns="http://www.w3.org/2000/svg" xmlns:xlink="http://www.w3.org/1999/xlink" x="0px" y="0px"
	 viewBox="0 0 300 300" style="enable-background:new 0 0 300 300;" xml:space="preserve">
<style type="text/css">
	.st0{fill:none;stroke:#000000;stroke-width:30;stroke-linecap:round;}
</style>
<g transform="translate(0,0)">
	<g>
		<path d="M150,270c-36.6,0-71.1-1.6-97.1-4.5c-13.1-1.5-23.6-3.2-31.1-5.2C16.4,258.9,0,254.6,0,240V120
			c0-22.3,17.2-42.2,48.4-56.1C75.8,51.7,111.9,45,150,45c38.1,0,74.2,6.7,101.6,18.9C282.8,77.8,300,97.7,300,120v120
			c0,14.6-16.4,18.9-21.8,20.3c-7.5,2-18,3.7-31.1,5.2C221.1,268.4,186.6,270,150,270z M30,231.6c15.2,3.9,57.4,8.4,120,8.4
			c62.6,0,104.8-4.5,120-8.4v-89.4c-6.3,1.2-14,2.3-22.9,3.3c-15,1.7-32.8,2.9-52.1,3.6V195h-90v-45.8c-19.4-0.7-37.1-2-52.1-3.6
			c-8.9-1-16.5-2.1-22.9-3.3V231.6z M30,240L30,240L30,240z M135,165h30v-15.1c-9.9,0.1-20.1,0.1-30,0V165z M270,120L270,120
			L270,120z M32.5,112.2c17,3.7,58,7.8,117.5,7.8c59.5,0,100.5-4.1,117.5-7.8c-4.4-7.2-14.4-14.8-28.2-20.9
			C215.7,80.8,184,75,150,75c-34,0-65.7,5.8-89.4,16.3C46.8,97.4,36.9,104.9,32.5,112.2z"/>
	</g>
</g>
<g>
	<g>
		<path class="st0" d="M0,0"/>
	</g>
</g>
</svg>
