<?xml version="1.0" encoding="utf-8"?>
<!-- Generator: Adobe Illustrator 21.0.0, SVG Export Plug-In . SVG Version: 6.00 Build 0)  -->
<svg version="1.1" id="Layer_1" xmlns="http://www.w3.org/2000/svg" xmlns:xlink="http://www.w3.org/1999/xlink" x="0px" y="0px"
	 viewBox="0 0 300 300" style="enable-background:new 0 0 300 300;" xml:space="preserve">
<style type="text/css">
	.st0{fill:none;stroke:#000000;stroke-width:30;stroke-linecap:round;}
</style>
<g transform="translate(0,0)">
	<g>
		<path d="M150,300c-33.2,0-64.7-3.3-88.5-9.2C50,287.9,15,279.1,15,255v-60c0-2,0.4-4,1.1-5.8c0.7-1.7,1.7-3.3,3.1-4.7c0,0,0,0,0,0
			c0,0,0,0,0,0s0,0,0,0c0,0,0,0,0,0c0,0,0.1-0.1,0.1-0.1l45-45c0,0,0.1-0.1,0.1-0.1c0,0,0,0,0,0c0,0,0,0,0,0c0,0,0,0,0,0
			c0,0,0,0,0,0c1.4-1.4,3-2.4,4.7-3.1C71,135.4,73,135,75,135s4,0.4,5.8,1.1c1.7,0.7,3.3,1.7,4.7,3.1c0,0,0,0,0,0c0,0,0,0,0,0
			s0,0,0,0c0,0,0,0,0,0c0.1,0.1,0.2,0.2,0.2,0.2c0,0,0,0,0,0c0,0,0,0,0,0s0,0,0,0c0,0,0,0,0,0c0.9,1,1.7,2,2.3,3.1
			c3,1.3,8.7,2.8,16.9,4.1V30c0-8.3,6.7-15,15-15c7.2,0,13.2,5,14.6,11.8c2.2,1.3,7.5,3.2,15.4,3.2c7.8,0,13.2-1.9,15.4-3.2
			C166.8,20,172.8,15,180,15c8.3,0,15,6.7,15,15v116.8c8.2-1.3,13.9-2.9,16.9-4.1c0.6-1.1,1.4-2.2,2.3-3.1c0,0,0,0,0,0c0,0,0,0,0,0
			c0,0,0,0,0,0c0,0,0,0,0,0c0.1-0.1,0.2-0.2,0.2-0.2c0,0,0,0,0,0c0,0,0,0,0,0s0,0,0,0c0,0,0,0,0,0c1.4-1.4,3-2.4,4.7-3.1
			c1.8-0.7,3.7-1.1,5.8-1.1s4,0.4,5.8,1.1c1.7,0.7,3.3,1.7,4.7,3.1c0,0,0,0,0,0c0,0,0,0,0,0c0,0,0,0,0,0c0,0,0,0,0,0
			c0,0,0.1,0.1,0.1,0.1l45,45c0,0,0.1,0.1,0.1,0.1c0,0,0,0,0,0c0,0,0,0,0,0c0,0,0,0,0,0c0,0,0,0,0,0c1.4,1.4,2.4,3,3.1,4.7
			c0.7,1.8,1.1,3.7,1.1,5.8v60c0,24.1-35,32.9-46.5,35.8C214.7,296.7,183.2,300,150,300z M45,252.4c3,2.3,12,7,31.6,11
			c20.5,4.2,46.5,6.6,73.4,6.6c26.9,0,52.9-2.3,73.4-6.6c19.6-4,28.7-8.7,31.6-11v-26.6c-6.6,2.5-12.8,4-16.5,4.9
			c-23.8,6-55.2,9.2-88.5,9.2s-64.7-3.3-88.5-9.2c-3.7-0.9-9.9-2.5-16.5-4.9V252.4z M255,255L255,255L255,255z M45,255L45,255
			L45,255z M50.6,195.6c5.1,2.3,13.3,5.2,26,7.8c20.5,4.2,46.5,6.6,73.4,6.6c26.9,0,52.9-2.3,73.4-6.6c12.7-2.6,21-5.5,26-7.8
			l-25.5-25.5c-6.7,2.9-13.8,4.4-17.9,5.2c-15.1,3-35,4.7-56,4.7s-40.9-1.7-56-4.7c-4.1-0.8-11.3-2.3-17.9-5.2L50.6,195.6z M210,150
			C210,150,210,150,210,150C210,150,210,150,210,150z M135,149.7c4.7,0.2,9.7,0.3,15,0.3c5.3,0,10.3-0.1,15-0.3V58.5
			c-4.6,1-9.7,1.5-15,1.5s-10.4-0.5-15-1.5V149.7z M90,150C90,150,90,150,90,150C90,150,90,150,90,150z M135,30L135,30L135,30z"/>
	</g>
</g>
<g>
	<g>
		<path class="st0" d="M0,0"/>
	</g>
</g>
</svg>
