<?xml version="1.0" encoding="utf-8"?>
<!-- Generator: Adobe Illustrator 21.0.0, SVG Export Plug-In . SVG Version: 6.00 Build 0)  -->
<svg version="1.1" id="Layer_1" xmlns="http://www.w3.org/2000/svg" xmlns:xlink="http://www.w3.org/1999/xlink" x="0px" y="0px"
	 viewBox="0 0 300 300" style="enable-background:new 0 0 300 300;" xml:space="preserve">
<style type="text/css">
	.st0{fill:none;stroke:#000000;stroke-width:30;stroke-linecap:round;}
</style>
<g transform="translate(0,0)">
	<g>
		<path d="M150,300c-21,0-40.9-1.7-56-4.7c-9.3-1.9-34-6.8-34-25.3v-3.5l29.3-58.6l-13.9-69.6c-0.1-0.6-0.2-1.2-0.3-1.8
			c-0.2-1.7,0-3.5,0.4-5.1c0.5-2.2,1.6-4.2,3-5.9c1.4-1.7,3.2-3.1,5.2-4.1c1.5-0.7,3.2-1.2,4.9-1.4c0.6-0.1,1.2-0.1,1.8-0.1h119.4
			c0.6,0,1.2,0,1.8,0.1c1.7,0.2,3.4,0.6,4.9,1.4c2,1,3.8,2.4,5.2,4.1c1.4,1.7,2.4,3.7,3,5.9c0.4,1.6,0.5,3.3,0.4,5.1
			c-0.1,0.6-0.2,1.2-0.3,1.8l-13.9,69.6l27.6,55.1c0.6,1.1,1,2.3,1.3,3.5c0.3,1.3,0.4,2.7,0.4,4c-0.5,18.1-24.8,22.9-34,24.8
			C190.9,298.3,171,300,150,300z M94.4,264.7c10.3,2.6,29.5,5.3,55.6,5.3c26.1,0,45.2-2.7,55.6-5.3l-26.3-52.6l12.4-62.1h-83.4
			l12.4,62.1L94.4,264.7z"/>
	</g>
</g>
<g>
	<g>
		<path class="st0" d="M18.5,6.2"/>
	</g>
</g>
<g>
	<path d="M150,150c-5.7,0-11.1-3.2-13.6-8.7c-4.6-9.9-9.2-31.4,2.2-49.3c11.6-18.1,35.4-27.3,70.9-27.3c8.3,0,15,6.7,15,15
		s-6.7,15-15,15c-23.9,0-40.1,4.8-45.6,13.4c-5.3,8.3-0.3,20.4-0.2,20.5c3.5,7.5,0.2,16.4-7.3,19.9C154.3,149.6,152.1,150,150,150z"
		/>
</g>
<g>
	<path d="M153.5,112c-6.1,0-11.8-3.7-14.1-9.8c-2.9-7.5-12.1-23.9-22.4-26.2c-7.3-1.6-15.8,4.8-21.6,10.5
		c-5.9,5.8-15.4,5.7-21.2-0.2c-5.8-5.9-5.7-15.4,0.2-21.2c16.2-15.8,32.8-22,49.2-18.3c28.8,6.5,42.4,41.1,43.9,45
		c2.9,7.8-1.1,16.4-8.8,19.3C157,111.7,155.3,112,153.5,112z"/>
</g>
<g>
	<path d="M168.5,94.7c-2.3,0-4.7-0.5-6.9-1.7c-7.3-3.8-10.2-12.9-6.4-20.2c4.9-9.4,6-16.6,3.2-21.2c-6.7-11.1-33.7-15.2-45.1-15.3
		c-8.3-0.1-14.9-6.9-14.8-15.2c0.1-8.2,6.8-14.8,15-14.8c0.1,0,0.1,0,0.2,0c5.4,0.1,53.4,1.4,70.4,29.9c5.9,9.8,10.2,26.5-2.3,50.5
		C179.1,91.8,173.9,94.7,168.5,94.7z"/>
</g>
</svg>
