<?xml version="1.0" encoding="utf-8"?>
<!-- Generator: Adobe Illustrator 21.0.0, SVG Export Plug-In . SVG Version: 6.00 Build 0)  -->
<svg version="1.1" id="Layer_1" xmlns="http://www.w3.org/2000/svg" xmlns:xlink="http://www.w3.org/1999/xlink" x="0px" y="0px"
	 viewBox="0 0 300 300" style="enable-background:new 0 0 300 300;" xml:space="preserve">
<style type="text/css">
	.st0{fill:none;stroke:#000000;stroke-width:30;stroke-linecap:round;}
</style>
<g transform="translate(0,0)">
	<g>
		<path d="M150,300c-17.2,0-33.6-1.7-46.1-4.8C84.7,290.4,75,281.9,75,270c0-34.3,6.8-66.9,19.2-91.6c5.4-10.9,11.8-19.9,18.8-26.8
			c-6.6-5.2-12.6-11.8-17.8-19.7c-10.5-15.8-17.2-35.6-19.3-57H60.3c-0.7,0-1.5,0-2.2-0.1c-2.2-0.3-4.2-1-5.9-2.1
			c-1.8-1.1-3.4-2.6-4.7-4.5c-1-1.5-1.7-3.1-2.1-4.9c-0.4-1.8-0.5-3.6-0.3-5.3c0.3-2.2,1-4.2,2.1-6c1.1-1.8,2.6-3.4,4.4-4.6
			c0.6-0.4,1.2-0.8,1.9-1.1L150-1.8l96.4,48.2c0.7,0.3,1.3,0.7,1.9,1.1c1.8,1.2,3.3,2.8,4.4,4.6c1.1,1.8,1.8,3.8,2.1,6
			c0.2,1.8,0.1,3.6-0.3,5.3c-0.4,1.8-1.1,3.4-2.1,4.9c-1.2,1.8-2.8,3.3-4.6,4.4c-1.8,1.1-3.8,1.9-6,2.1c-0.7,0.1-1.5,0.1-2.2,0.1
			h-15.4c-2.1,21.3-8.8,41.2-19.3,57c-5.3,7.9-11.3,14.5-17.8,19.7c7,6.9,13.3,15.9,18.8,26.8c12.4,24.7,19.2,57.2,19.2,91.6
			c0,11.9-9.7,20.4-28.9,25.2C183.6,298.3,167.2,300,150,300z M105.1,264.2c6.7,2.5,22.6,5.8,44.9,5.8c22.3,0,38.2-3.2,44.9-5.8
			C193.5,207,170.6,165,150,165C129.4,165,106.5,207,105.1,264.2z M123.4,120c7.5,9.4,16.8,15,26.6,15s19.1-5.6,26.6-15H123.4z
			 M108.9,90h82.2c1.3-4.8,2.3-9.8,3-15h-88.1C106.6,80.2,107.6,85.2,108.9,90z M123.5,45h52.9L150,31.8L123.5,45z"/>
	</g>
</g>
<g>
	<g>
		<path class="st0" d="M0,0"/>
	</g>
</g>
</svg>
