<?xml version="1.0" encoding="utf-8"?>
<!-- Generator: Adobe Illustrator 21.0.0, SVG Export Plug-In . SVG Version: 6.00 Build 0)  -->
<svg version="1.1" id="Layer_1" xmlns="http://www.w3.org/2000/svg" xmlns:xlink="http://www.w3.org/1999/xlink" x="0px" y="0px"
	 viewBox="0 0 300 300" style="enable-background:new 0 0 300 300;" xml:space="preserve">
<style type="text/css">
	.st0{fill:none;stroke:#000000;stroke-width:30;stroke-linecap:round;}
</style>
<g transform="translate(0,0)">
	<g>
		<path d="M150,300c-36.6,0-71.1-1.6-97.1-4.5c-13.1-1.5-23.6-3.2-31.1-5.2C16.4,288.9,0,284.6,0,270c0-45,11.6-87.8,33.1-122.4
			c-9-3.7-16.8-11.8-22.7-23.5C3.7,110.8,0,93.3,0,75V60h15c18.3,0,35.8,3.7,49.1,10.4c11.5,5.8,19.5,13.4,23.3,22.2
			C106.7,81,128,75,150,75c22,0,43.3,6,62.6,17.5c3.8-8.8,11.8-16.4,23.3-22.2C249.2,63.7,266.7,60,285,60h15v15
			c0,18.3-3.7,35.8-10.4,49.1c-5.9,11.7-13.7,19.8-22.7,23.5C288.4,182.2,300,225,300,270c0,14.6-16.4,18.9-21.8,20.3
			c-7.5,2-18,3.7-31.1,5.2C221.1,298.4,186.6,300,150,300z M270,270L270,270L270,270z M30.2,261.6c15.3,3.9,57.5,8.4,119.8,8.4
			s104.5-4.5,119.8-8.4c-1.5-41.7-14.3-80.4-36.4-109.9C210.9,121.6,181.2,105,150,105s-60.9,16.6-83.5,46.7
			C44.5,181.2,31.7,219.9,30.2,261.6z M30,270L30,270L30,270z M238.2,112.1c3.3,3.1,6.4,6.4,9.5,9.8c2.1-1.2,4.6-1.9,7.2-1.9
			c0.5,0,4-1.6,7.8-9.3c2.7-5.4,4.7-12.1,5.9-19.4c-7.4,1.2-14,3.2-19.4,5.9c-7.7,3.8-9.3,7.3-9.3,7.8
			C240,107.6,239.4,110,238.2,112.1z M31.3,91.3c1.2,7.4,3.2,14,5.9,19.4c3.8,7.7,7.3,9.3,7.8,9.3c2.6,0,5.1,0.7,7.2,1.9
			c3.1-3.4,6.3-6.7,9.5-9.8c-1.1-2.1-1.8-4.5-1.8-7.1c0-0.5-1.6-4-9.3-7.8C45.3,94.5,38.7,92.5,31.3,91.3z M180,210
			c-5.5,0-10.8-3-13.4-8.3c-3.7-7.4-0.7-16.4,6.7-20.1l30-15c7.4-3.7,16.4-0.7,20.1,6.7c3.7,7.4,0.7,16.4-6.7,20.1l-30,15
			C184.6,209.5,182.3,210,180,210z M120,210c-2.3,0-4.5-0.5-6.7-1.6l-30-15c-7.4-3.7-10.4-12.7-6.7-20.1c3.7-7.4,12.7-10.4,20.1-6.7
			l30,15c7.4,3.7,10.4,12.7,6.7,20.1C130.8,207,125.5,210,120,210z M150,195c-8.3,0-15-6.7-15-15v-30c0-8.3,6.7-15,15-15
			s15,6.7,15,15v30C165,188.3,158.3,195,150,195z"/>
	</g>
</g>
<g>
	<g>
		<path class="st0" d="M0,0"/>
	</g>
</g>
</svg>
