<?xml version="1.0" encoding="utf-8"?>
<!-- Generator: Adobe Illustrator 21.0.0, SVG Export Plug-In . SVG Version: 6.00 Build 0)  -->
<svg version="1.1" id="Layer_1" xmlns="http://www.w3.org/2000/svg" xmlns:xlink="http://www.w3.org/1999/xlink" x="0px" y="0px"
	 viewBox="0 0 300 300" style="enable-background:new 0 0 300 300;" xml:space="preserve">
<style type="text/css">
	.st0{fill:none;stroke:#000000;stroke-width:30;stroke-linecap:round;stroke-linejoin:round;}
</style>
<g transform="translate(0,0)">
	<g>
		<path d="M150,300c-42,0-80.7-31-108.9-87.4C14.6,159.6,0,89.4,0,15c0-4.8,2.3-9.3,6.2-12.2c3.9-2.8,8.9-3.6,13.5-2.1
			c86.4,28.8,174.1,28.8,260.5,0c4.6-1.5,9.6-0.8,13.5,2.1c3.9,2.8,6.2,7.3,6.2,12.2c0,74.4-14.6,144.6-41.1,197.6
			C230.7,269,192,300,150,300z M30.4,35.4C32.8,97.5,45.9,155.1,68,199.2c11.5,23,24.7,40.8,39.2,53.1C121,264.1,135.4,270,150,270
			c14.6,0,29-5.9,42.9-17.7c14.5-12.3,27.7-30.2,39.2-53.1c22.1-44.1,35.2-101.7,37.6-163.8C190.1,58.1,109.9,58.1,30.4,35.4z"/>
	</g>
</g>
<g>
	<g>
		<path class="st0" d="M0,0"/>
	</g>
</g>
</svg>
