<svg xmlns="http://www.w3.org/2000/svg" viewBox="0 0 256 256"><defs><style>.a{fill:#000000;}.b{fill:none;stroke:#000000;stroke-miterlimit:10;stroke-width:8px;}</style></defs><title>buttons</title><path class="a" d="M128,8a120,120,0,0,1,84.85,204.85A120,120,0,1,1,43.15,43.15,119.21,119.21,0,0,1,128,8m0-8A128,128,0,1,0,256,128,128,128,0,0,0,128,0Z"/><line class="b" x1="216" y1="216" x2="40" y2="40"/><line class="b" x1="216" y1="40" x2="40" y2="216"/><path class="b" d="M96,64"/><polygon class="a" points="128 24 96 56 160 56 128 24"/><polygon class="a" points="128 232 160 200 96 200 128 232"/><polygon class="a" points="24 128 56 160 56 96 24 128"/><polygon class="a" points="232 128 200 96 200 160 232 128"/></svg>