<?xml version="1.0" encoding="utf-8"?>
<!-- Generator: Adobe Illustrator 21.0.0, SVG Export Plug-In . SVG Version: 6.00 Build 0)  -->
<svg version="1.1" id="Layer_1" xmlns="http://www.w3.org/2000/svg" xmlns:xlink="http://www.w3.org/1999/xlink" x="0px" y="0px"
	 viewBox="0 0 300 300" style="enable-background:new 0 0 300 300;" xml:space="preserve">
<style type="text/css">
	.st0{fill:none;stroke:#000000;stroke-width:30;stroke-linecap:round;}
</style>
<g transform="translate(0,0)">
	<g>
		<path d="M285,300c-3.8,0-7.7-1.5-10.6-4.4L210,231.2l-49.4,49.4c-5.9,5.9-15.4,5.9-21.2,0c-5.9-5.9-5.9-15.4,0-21.2l19.4-19.4
			L0,81.2V0h81.2L240,158.8l19.4-19.4c5.9-5.9,15.4-5.9,21.2,0c5.9,5.9,5.9,15.4,0,21.2L231.2,210l64.4,64.4
			c5.9,5.9,5.9,15.4,0,21.2C292.7,298.5,288.8,300,285,300z M30,68.8l150,150l38.8-38.8L68.8,30H30V68.8z"/>
	</g>
</g>
<g>
	<path class="st0" d="M0,0"/>
</g>
</svg>
