<?xml version="1.0" encoding="utf-8"?>
<!-- Generator: Adobe Illustrator 21.0.0, SVG Export Plug-In . SVG Version: 6.00 Build 0)  -->
<svg version="1.1" id="Layer_1" xmlns="http://www.w3.org/2000/svg" xmlns:xlink="http://www.w3.org/1999/xlink" x="0px" y="0px"
	 viewBox="0 0 200 50" style="enable-background:new 0 0 200 50;" xml:space="preserve">
<style type="text/css">
	.st0{fill:none;stroke:#000000;stroke-width:4;stroke-miterlimit:10;}
	.st1{fill:#FFFFFF;}
</style>
<line class="st0" x1="0" y1="25" x2="200" y2="25"/>
<circle cx="100" cy="25" r="22.5"/>
<path class="st1" d="M100,15c-5,0-9,4-9,9c0,3,1.5,5.8,4,7.5V35h2v-3h2v3h2v-3h2v3h2v-3.5c2.5-1.6,4-4.5,4-7.5C109,19,105,15,100,15
	 M96,24c1.1,0,2,0.9,2,2s-0.9,2-2,2s-2-0.9-2-2S94.9,24,96,24 M104,24c1.1,0,2,0.9,2,2s-0.9,2-2,2s-2-0.9-2-2S102.9,24,104,24
	 M100,27l1.5,3h-3L100,27z"/>
</svg>
