<?xml version="1.0" encoding="utf-8"?>
<!-- Generator: Adobe Illustrator 21.0.0, SVG Export Plug-In . SVG Version: 6.00 Build 0)  -->
<svg version="1.1" id="Layer_1" xmlns="http://www.w3.org/2000/svg" xmlns:xlink="http://www.w3.org/1999/xlink" x="0px" y="0px"
	 viewBox="0 0 24 24" style="enable-background:new 0 0 24 24;" xml:space="preserve">
<style type="text/css">
	.st0{clip-path:url(#SVGID_2_);}
</style>
<g>
	<defs>
		<rect id="SVGID_1_" x="1.6" y="2.7" width="18.7" height="18.7"/>
	</defs>
	<clipPath id="SVGID_2_">
		<use xlink:href="#SVGID_1_"  style="overflow:visible;"/>
	</clipPath>
	<path class="st0" d="M19.5,6.9v11.3c0,1.7-1.4,3.1-3.1,3.1h-5.7c-0.8,0-1.6-0.3-2.2-0.9l-6.1-6.2c0,0,1-1,1-1C3.6,13.1,3.8,13,4,13
		c0.2,0,0.3,0,0.5,0.1c0,0,3.4,1.9,3.4,1.9V5.8c0-0.6,0.5-1.2,1.2-1.2c0.6,0,1.2,0.5,1.2,1.2v5.5h0.8V3.8c0-0.6,0.5-1.2,1.2-1.2
		s1.2,0.5,1.2,1.2v7.4h0.8V4.6c0-0.6,0.5-1.2,1.2-1.2c0.6,0,1.2,0.5,1.2,1.2v6.6h0.8V6.9c0-0.6,0.5-1.2,1.2-1.2
		C19,5.8,19.5,6.3,19.5,6.9z"/>
</g>
</svg>
