<?xml version="1.0" encoding="utf-8"?>
<!-- Generator: Adobe Illustrator 21.0.0, SVG Export Plug-In . SVG Version: 6.00 Build 0)  -->
<svg version="1.1" id="Layer_1" xmlns="http://www.w3.org/2000/svg" xmlns:xlink="http://www.w3.org/1999/xlink" x="0px" y="0px"
	 viewBox="0 0 300 300" style="enable-background:new 0 0 300 300;" xml:space="preserve">
<g>
	<path d="M150,297.8c-3.6,0-7.3-1.3-10.2-3.8c-1.4-1.2-34.4-29.3-67.9-66.9C25.3,174.7,1.6,130.7,1.6,96.4C1.6,39.2,43.1,9.2,84,9.2
		c25.1,0,50.3,11.4,66,33.5c15.7-22.1,40.9-33.5,66-33.5c40.9,0,82.4,29.9,82.4,87.1c0,34.3-23.6,78.3-70.3,130.8
		c-33.5,37.7-66.5,65.8-67.9,66.9C157.3,296.6,153.6,297.8,150,297.8z M84,40.9c-25.2,0-50.7,17.2-50.7,55.5
		c0,49.4,76.6,128.5,116.7,164.6c40.1-36.1,116.7-115.3,116.7-164.6c0-17.5-5.5-32.1-15.9-42c-9.1-8.7-21.5-13.5-34.8-13.5
		c-25,0-50.2,17.2-50.2,55.5c0,8.7-7.1,15.8-15.8,15.8c-8.7,0-15.8-7.1-15.8-15.8c0-17.7-5.4-32.2-15.7-42.1
		C109.5,45.6,97.2,40.9,84,40.9z"/>
</g>
</svg>
