<?xml version="1.0" encoding="utf-8"?>
<!-- Generator: Adobe Illustrator 21.0.0, SVG Export Plug-In . SVG Version: 6.00 Build 0)  -->
<svg version="1.1" id="Layer_1" xmlns="http://www.w3.org/2000/svg" xmlns:xlink="http://www.w3.org/1999/xlink" x="0px" y="0px"
	 viewBox="0 0 300 300" style="enable-background:new 0 0 300 300;" xml:space="preserve">
<style type="text/css">
	.st0{fill:none;stroke:#000000;stroke-width:30;stroke-linecap:round;stroke-linejoin:round;}
</style>
<g transform="translate(0,0)">
	<g>
		<path d="M66.3,296.5c-1,0-2.1-0.1-3.2-0.4c-1.7-0.4-3.4-1.1-4.9-2.2c-1.4-1-2.5-2.2-3.5-3.5c-1.1-1.7-1.9-3.5-2.2-5.3
			c-0.3-1.9-0.3-3.8,0.1-5.8c0.1-0.4,0.2-0.8,0.3-1.2l30.8-97.6L15.8,126c-4.6-3.7-6.4-9.9-4.4-15.5s7.2-9.3,13.2-9.3h84.5
			l27.8-87.9c1.8-5.8,7.2-9.7,13.3-9.7s11.5,3.9,13.3,9.7l27.8,87.9h84.3c0.2,0,0.5,0,0.7,0c1.9,0.1,3.7,0.5,5.3,1.3
			c1.7,0.8,3.3,2,4.6,3.5c1.1,1.3,2,2.8,2.6,4.4c0,0,0,0,0,0c0,0,0,0,0,0c0,0,0,0,0,0c0,0,0,0,0,0c0,0,0,0,0,0c0,0,0,0,0,0
			c0,0,0,0,0,0c0,0,0,0,0,0c0,0,0,0,0,0c0,0,0,0,0,0c0,0,0,0,0,0c0,0,0,0,0,0c0,0,0,0,0,0c0,0,0,0,0,0c0,0,0,0,0,0c0,0,0,0,0,0
			c0,0,0,0,0,0c0,0,0,0,0,0c0.5,1.5,0.8,3,0.8,4.5c0,0.2,0,0.4,0,0.6c-0.1,2-0.6,3.8-1.4,5.5c-0.8,1.7-1.9,3.2-3.4,4.5
			c-0.2,0.2-0.4,0.3-0.5,0.4l-68,54.4l30.9,97.8c1.8,5.9-0.3,12.2-5.4,15.7c-5.1,3.5-11.8,3.2-16.6-0.6l-75-60l-74.8,59.8
			c-0.3,0.3-0.6,0.5-1,0.7c-1.6,1.1-3.5,1.9-5.3,2.2C68.1,296.4,67.2,296.5,66.3,296.5z M172.3,215.6l34.2,27.4l-13.8-43.7
			L172.3,215.6z M107.2,199.2l-13.8,43.7l34.2-27.4L107.2,199.2z M116.3,170.7l33.8,27l33.8-27l-13.1-41.6h-41.2L116.3,170.7z
			 M64.2,129.1L92.9,152l7.2-22.9H64.2z M199.9,129.1l7.2,22.9l28.7-22.9H199.9z M138.2,101.2h23.6L150,63.8L138.2,101.2z"/>
	</g>
</g>
<g>
	<path class="st0" d="M0,0"/>
</g>
</svg>
