<?xml version="1.0" encoding="utf-8"?>
<!-- Generator: Adobe Illustrator 21.0.0, SVG Export Plug-In . SVG Version: 6.00 Build 0)  -->
<svg version="1.1" id="Layer_1" xmlns="http://www.w3.org/2000/svg" xmlns:xlink="http://www.w3.org/1999/xlink" x="0px" y="0px"
	 viewBox="0 0 300 300" style="enable-background:new 0 0 300 300;" xml:space="preserve">
<style type="text/css">
	.st0{fill:none;stroke:#000000;stroke-width:30;stroke-linecap:round;stroke-linejoin:round;}
</style>
<g transform="translate(0,0)">
	<g>
		<path d="M285,300H15c-4.4,0-8.6-1.9-11.4-5.3s-4.1-7.8-3.4-12.2l30-180C31.4,95.3,37.7,90,45,90h15.9C67.2,39.2,104.7,0,150,0
			c45.3,0,82.8,39.2,89.1,90H255c7.3,0,13.6,5.3,14.8,12.5l30,180c0.7,4.3-0.5,8.8-3.4,12.2S289.4,300,285,300z M32.7,270h234.6
			l-25-150H57.7L32.7,270z M91.2,90h117.6C203.2,55.8,179,30,150,30S96.8,55.8,91.2,90z"/>
	</g>
</g>
<g>
	<g>
		<path class="st0" d="M0,0"/>
	</g>
</g>
</svg>
